<?xml version="1.0" encoding="iso-8859-1"?>
<!-- Generator: Adobe Illustrator 19.0.0, SVG Export Plug-In . SVG Version: 6.00 Build 0)  -->
<svg version="1.1" id="Capa_1" xmlns="http://www.w3.org/2000/svg" xmlns:xlink="http://www.w3.org/1999/xlink" x="0px" y="0px"
	 viewBox="0 0 512 512" style="enable-background:new 0 0 512 512;" xml:space="preserve">
<path style="fill:#F9A462;" d="M137.673,441.769l0.154,48.397c0.021,6.541,5.329,11.832,11.87,11.832
	c2.325,0,4.599-0.683,6.54-1.964l24.4-16.109l17.846,11.782c6.216,4.103,13.5,6.291,20.948,6.291s14.732-2.188,20.948-6.291
	l17.846-11.782l17.846,11.782c6.216,4.103,13.5,6.291,20.948,6.291s14.732-2.188,20.948-6.291l17.846-11.782l24.4,16.109
	c1.94,1.281,4.215,1.964,6.54,1.964c6.541,0,11.849-5.292,11.87-11.832l0.154-48.398"/>
<path style="fill:#8E4238;" d="M369.566,180.701V26.87c0-9.317-7.553-16.87-16.87-16.87H230.027
	c-2.109,21.842-19.51,39.207-41.366,41.271c1.7,4.799,2.633,9.96,2.633,15.341c0,24.863-19.749,45.101-44.414,45.914v153.298
	L369.566,180.701z"/>
<g>
	<path style="fill:#F7CD95;" d="M135.217,270.283v161.848c0,11.111,9,20.111,20.111,20.111h205.79c11.11,0,20.111-9,20.111-20.111
		V176.243L135.217,270.283z"/>
</g>
<polygon style="fill:#EF5352;" points="206.22,243.141 206.22,406.02 310.225,406.02 310.225,203.384 "/>
<path d="M414.625,163.477c-1.972-5.158-7.752-7.741-12.912-5.77l-22.147,8.466V26.87c0-14.816-12.054-26.87-26.87-26.87H230.027
	c-5.15,0-9.458,3.912-9.954,9.039c-1.65,17.088-15.256,30.662-32.352,32.276c-3.068,0.29-5.831,1.978-7.489,4.575
	c-1.658,2.598-2.026,5.815-0.997,8.719c1.367,3.859,2.06,7.897,2.06,12.003c0,19.499-15.261,35.277-34.744,35.92
	c-5.392,0.178-9.67,4.6-9.67,9.995v146.415l-5.234,2.001c-0.004,0.001-0.008,0.003-0.012,0.005l-28.49,10.89
	c-5.159,1.972-7.742,7.752-5.77,12.912c1.523,3.984,5.317,6.432,9.343,6.432c1.187,0,2.394-0.213,3.569-0.662l14.931-5.707v147.32
	c0,4.234,0.879,8.266,2.463,11.924l0.147,46.142c0.038,12.022,9.848,21.801,21.87,21.801c4.297,0,8.464-1.251,12.049-3.619
	l18.891-12.471l12.336,8.144c7.874,5.198,17.023,7.946,26.457,7.946c9.435,0,18.583-2.747,26.456-7.946l12.337-8.144l12.336,8.144
	c7.873,5.198,17.022,7.946,26.457,7.946s18.583-2.747,26.457-7.946l12.336-8.144l18.89,12.471c3.586,2.368,7.753,3.619,12.05,3.619
	c12.021,0,21.832-9.78,21.87-21.801l0.147-46.143c1.584-3.659,2.463-7.691,2.463-11.924V183.126l17.625-6.737
	C414.013,174.417,416.597,168.636,414.625,163.477z M216.22,250.025l84.005-32.112V396.02H216.22V250.025z M268.223,208.734v-33.768
	h37.871v19.292L268.223,208.734z M248.223,216.38l-37.871,14.476v-55.89h37.871V216.38z M238.351,20h114.345
	c3.788,0,6.87,3.082,6.87,6.87v146.948l-33.472,12.795v-11.646h9.798c5.523,0,10-4.477,10-10s-4.477-10-10-10h-9.798v-60.12
	c0-5.523-4.477-10-10-10s-10,4.477-10,10v60.119h-37.871V83.003c0-5.523-4.477-10-10-10c-5.523,0-10,4.477-10,10v71.963h-37.871
	v-99.92C223.986,47.857,234.289,35.207,238.351,20z M156.88,121.375c13.712-2.835,25.495-10.608,33.472-21.381v54.972h-9.798
	c-5.523,0-10,4.477-10,10s4.477,10,10,10h9.798v63.535l-33.472,12.795V121.375z M366.75,491.999c-0.367,0-0.724-0.107-1.031-0.31
	l-24.4-16.108c-3.342-2.206-7.677-2.206-11.019,0l-17.845,11.782c-4.595,3.033-9.933,4.636-15.438,4.636s-10.844-1.603-15.438-4.636
	l-17.846-11.782c-3.342-2.206-7.678-2.206-11.019,0l-17.847,11.782c-4.594,3.033-9.932,4.636-15.438,4.636
	c-5.505,0-10.844-1.603-15.438-4.636l-17.846-11.782c-3.343-2.206-7.678-2.206-11.019,0l-24.401,16.108
	c-0.306,0.203-0.663,0.31-1.03,0.31c-1.028,0-1.867-0.836-1.87-1.864l-0.092-28.863c2.426,0.633,4.971,0.97,7.593,0.97h205.791
	c2.622,0,5.167-0.337,7.593-0.97l-0.092,28.863C368.616,491.163,367.777,491.999,366.75,491.999z M371.229,432.131
	c0,5.575-4.536,10.111-10.111,10.111h-205.79c-5.575,0-10.111-4.536-10.111-10.111V277.166l51.003-19.497v148.35
	c0,5.523,4.477,10,10,10h104.005c5.523,0,10-4.477,10-10V210.268l51.003-19.496v241.359H371.229z"/>
<circle cx="316.09" cy="55.847" r="10"/>
<g>
</g>
<g>
</g>
<g>
</g>
<g>
</g>
<g>
</g>
<g>
</g>
<g>
</g>
<g>
</g>
<g>
</g>
<g>
</g>
<g>
</g>
<g>
</g>
<g>
</g>
<g>
</g>
<g>
</g>
</svg>
